<svg viewBox="0 0 40 40"  xmlns="http://www.w3.org/2000/svg">
  <g fill="#805AD5" fill-rule="nonzero">
    <path d="M16.364 21.818H5.709c-.769 0-1.454.484-1.712 1.208L.106 33.935c-.07.196-.106.402-.106.61v3.637C0 39.186.814 40 1.818 40h14.546a1.818 1.818 0 0 0 1.818-1.818V23.636a1.818 1.818 0 0 0-1.818-1.818Z" />
    <path d="M38.182 0H23.636a1.818 1.818 0 0 0-1.818 1.818v14.546c0 1.004.814 1.818 1.818 1.818h3.637c.482 0 .944-.192 1.285-.533L39.468 6.74c.34-.34.532-.803.532-1.285V1.818A1.818 1.818 0 0 0 38.182 0Z" />
    <path d="M38.182 40H23.636a1.818 1.818 0 0 1-1.818-1.818V23.636c0-1.004.814-1.818 1.818-1.818h3.637c.482 0 .944.192 1.285.533l10.91 10.909c.34.34.532.803.532 1.285v3.637A1.818 1.818 0 0 1 38.182 40Z" />
    <path d="M16.364 0h-2.91c-.77 0-1.455.485-1.713 1.21L6.577 15.755a1.818 1.818 0 0 0 1.714 2.427h8.073a1.818 1.818 0 0 0 1.818-1.818V1.818A1.818 1.818 0 0 0 16.364 0Z" />
  </g>
</svg>